<svg width="67" height="37" viewBox="0 0 67 37" fill="none" xmlns="http://www.w3.org/2000/svg">
<path d="M60.6741 5.69401C60.071 4.03057 58.9552 2.59017 57.4799 1.57064C56.0046 0.551104 54.2422 0.00244078 52.4347 0H8.73785C6.42002 0.00372045 4.19835 0.904819 2.56025 2.5056C0.922153 4.10639 0.00140112 6.27613 0 8.5388V28.4612C0.00140112 30.7239 0.922153 32.8936 2.56025 34.4944C4.19835 36.0952 6.42002 36.9963 8.73785 37H52.4347C54.2422 36.9976 56.0046 36.4489 57.4799 35.4294C58.9552 34.4098 60.071 32.9694 60.6741 31.306H67V5.69401H60.6741ZM55.3495 28.4612C55.3483 29.2155 55.0408 29.9386 54.4945 30.472C53.9481 31.0054 53.2074 31.3055 52.4347 31.3067H8.73785C7.96489 31.3063 7.22371 31.0064 6.67715 30.4729C6.13059 29.9393 5.82336 29.2158 5.82296 28.4612V8.5388C5.82316 7.78425 6.13035 7.06067 6.67698 6.52719C7.2236 5.99371 7.9649 5.69401 8.73785 5.69401H52.4347C53.2074 5.69519 53.9481 5.99536 54.4945 6.52875C55.0408 7.06213 55.3483 7.78522 55.3495 8.53954V28.4612ZM61.1748 25.6157H58.2599V11.3843H61.1748V25.6157ZM8.73785 14.2313V22.7701C8.73785 25.9018 10.7074 28.4642 13.1087 28.4642H17.4757V8.54102H13.1094C10.7043 8.54102 8.7386 11.1026 8.7386 14.235L8.73785 14.2313Z" fill="white"/>
</svg>
