<svg width="66" height="37" viewBox="0 0 66 37" fill="none" xmlns="http://www.w3.org/2000/svg">
<path d="M59.7684 5.69329C59.1742 4.02991 58.075 2.58963 56.6216 1.57023C55.1683 0.550825 53.4322 0.00230672 51.6516 0H8.60722C6.32404 0.0037733 4.13559 0.904894 2.52199 2.50567C0.908389 4.10645 0.00139976 6.27616 0 8.53881V28.4619C0.00160009 30.7245 0.908678 32.894 2.52226 34.4946C4.13584 36.0952 6.32417 36.9962 8.60722 37H51.6516C53.4322 36.9977 55.1683 36.4492 56.6216 35.4298C58.075 34.4104 59.1742 32.9701 59.7684 31.3067H66V5.69104H59.7684V5.69329ZM54.523 28.4619C54.5218 29.2163 54.2189 29.9393 53.6806 30.4727C53.1424 31.0061 52.4128 31.3063 51.6516 31.3075H8.60722C7.84711 31.3047 7.11902 31.0038 6.58211 30.4706C6.04519 29.9374 5.74312 29.2152 5.74193 28.4619V8.53881C5.74193 7.78452 6.04413 7.06109 6.58212 6.52752C7.12011 5.99394 7.84987 5.69388 8.611 5.69329H51.6516C52.4128 5.69448 53.1424 5.99466 53.6806 6.52804C54.2189 7.06142 54.5218 7.78449 54.523 8.53881V28.4619ZM60.2611 25.6164H57.3905V11.3843H60.2619L60.2611 25.6164ZM20.0843 8.53881H28.6937V28.4619H20.0843V8.53881ZM8.60722 14.2321V22.7709C8.60722 25.9022 10.5439 28.4642 12.9135 28.4642H17.2152V8.54106H12.9135C10.5439 8.54106 8.60722 11.1023 8.60722 14.2343V14.2321Z" fill="white"/>
</svg>
