<svg width="65" height="36" viewBox="0 0 65 36" fill="none" xmlns="http://www.w3.org/2000/svg">
<path d="M58.8616 5.53903C58.2764 3.92066 57.1938 2.51935 55.7624 1.52757C54.3311 0.535789 52.6213 0.00217117 50.8678 0H8.47707C6.22848 0.00353996 4.07314 0.880221 2.48392 2.4377C0.894706 3.99519 0.00140335 6.10628 0 8.30781V27.6922C0.00140335 29.8937 0.894706 32.0048 2.48392 33.5623C4.07314 35.1198 6.22848 35.9965 8.47707 36H50.8678C52.6211 35.9977 54.3308 35.464 55.762 34.4722C57.1932 33.4804 58.2757 32.0792 58.8609 30.461H65V5.5368H58.8631L58.8616 5.53903ZM53.6972 27.6922C53.696 28.4262 53.3977 29.1297 52.8676 29.6487C52.3375 30.1677 51.6189 30.4598 50.8693 30.461H8.47707C7.72757 30.46 7.00908 30.1679 6.47931 29.6488C5.94955 29.1297 5.65178 28.426 5.65138 27.6922V8.30781C5.65138 7.57387 5.94902 6.86996 6.47887 6.35078C7.00873 5.83159 7.72744 5.53962 8.47707 5.53903H50.8678C51.6177 5.53982 52.3367 5.83173 52.8671 6.35077C53.3975 6.8698 53.696 7.57359 53.6972 8.30781V27.6922ZM59.3486 24.9234H56.5191V11.0766H59.3471L59.3486 24.9234ZM19.7798 8.30781H28.2584V27.6922H19.7798V8.30781ZM31.0864 8.30781H39.5657V27.6922H31.0864V8.30781ZM8.47707 13.8468V22.1546C8.47707 25.1997 10.3841 27.6937 12.7175 27.6937H16.9541V8.30929H12.7175C10.3841 8.30929 8.47707 10.8018 8.47707 13.8483V13.8468Z" fill="white"/>
</svg>
