<svg width="65" height="37" viewBox="0 0 65 37" fill="none" xmlns="http://www.w3.org/2000/svg">
<path d="M58.863 5.69337C58.2778 4.03002 57.1953 2.58974 55.7641 1.57033C54.3328 0.550912 52.623 0.00235859 50.8695 0H8.4771C6.2285 0.00365818 4.07315 0.904693 2.48394 2.50543C0.894717 4.10616 0.00141102 6.27586 0 8.53852V28.4615C0.00141102 30.7241 0.894717 32.8938 2.48394 34.4946C4.07315 36.0953 6.2285 36.9963 8.4771 37H50.8695C52.623 36.9976 54.3328 36.4491 55.7641 35.4297C57.1953 34.4103 58.2778 32.97 58.863 31.3066H65V5.69107H58.863V5.69337ZM53.6977 28.4615C53.6963 29.2156 53.3979 29.9385 52.868 30.4717C52.338 31.005 51.6197 31.3052 50.8702 31.3066H8.4771C7.72826 31.3048 7.01068 31.0043 6.48167 30.471C5.95265 29.9376 5.65536 29.215 5.65496 28.4615V8.53852C5.65516 7.78493 5.95239 7.06219 6.48144 6.52882C7.0105 5.99545 7.72819 5.695 8.4771 5.69337H50.8695C51.6189 5.69479 52.3373 5.995 52.8672 6.52826C53.3972 7.06153 53.6955 7.78438 53.6969 8.53852L53.6977 28.4615ZM59.3488 25.6163H56.5206V11.3844H59.3481L59.3488 25.6163Z" fill="#0A0C1B"/>
</svg>
