<svg width="65" height="36" viewBox="0 0 65 36" fill="none" xmlns="http://www.w3.org/2000/svg">
<mask id="path-1-inside-1" fill="white">
<path d="M58.8616 5.53903C58.2764 3.92066 57.1938 2.51935 55.7624 1.52757C54.3311 0.535789 52.6213 0.00217117 50.8678 0H8.47707C6.22848 0.00353996 4.07314 0.880221 2.48392 2.4377C0.894706 3.99519 0.00140335 6.10628 0 8.30781V27.6922C0.00140335 29.8937 0.894706 32.0048 2.48392 33.5623C4.07314 35.1198 6.22848 35.9965 8.47707 36H50.8678C52.6211 35.9977 54.3308 35.464 55.762 34.4722C57.1932 33.4804 58.2757 32.0792 58.8609 30.461H65V5.5368H58.8631L58.8616 5.53903ZM53.6972 27.6922C53.696 28.4262 53.3977 29.1297 52.8676 29.6487C52.3375 30.1677 51.6189 30.4598 50.8693 30.461H8.47707C7.72757 30.46 7.00908 30.1679 6.47931 29.6488C5.94955 29.1297 5.65178 28.426 5.65138 27.6922V8.30781C5.65138 7.57387 5.94902 6.86996 6.47887 6.35078C7.00873 5.83159 7.72744 5.53962 8.47707 5.53903H50.8678C51.6177 5.53982 52.3367 5.83173 52.8671 6.35077C53.3975 6.8698 53.696 7.57359 53.6972 8.30781V27.6922ZM59.3486 24.9234H56.5191V11.0766H59.3471L59.3486 24.9234ZM19.7798 8.30781H28.2584V27.6922H19.7798V8.30781ZM31.0864 8.30781H39.5657V27.6922H31.0864V8.30781ZM8.47707 13.8468V22.1546C8.47707 25.1997 10.3841 27.6937 12.7175 27.6937H16.9541V8.30929H12.7175C10.3841 8.30929 8.47707 10.8018 8.47707 13.8483V13.8468Z"/>
<path d="M42.2011 8.30781V27.6937L46.1836 27.6929C49.6962 26.6519 49.9375 25.3951 50.1661 23.0748V12.3057C50.0171 10.0945 48.3993 9.34115 46.19 8.31231L46.1836 8.30929L42.2011 8.30781Z"/>
</mask>
<path d="M58.8616 5.53903C58.2764 3.92066 57.1938 2.51935 55.7624 1.52757C54.3311 0.535789 52.6213 0.00217117 50.8678 0H8.47707C6.22848 0.00353996 4.07314 0.880221 2.48392 2.4377C0.894706 3.99519 0.00140335 6.10628 0 8.30781V27.6922C0.00140335 29.8937 0.894706 32.0048 2.48392 33.5623C4.07314 35.1198 6.22848 35.9965 8.47707 36H50.8678C52.6211 35.9977 54.3308 35.464 55.762 34.4722C57.1932 33.4804 58.2757 32.0792 58.8609 30.461H65V5.5368H58.8631L58.8616 5.53903ZM53.6972 27.6922C53.696 28.4262 53.3977 29.1297 52.8676 29.6487C52.3375 30.1677 51.6189 30.4598 50.8693 30.461H8.47707C7.72757 30.46 7.00908 30.1679 6.47931 29.6488C5.94955 29.1297 5.65178 28.426 5.65138 27.6922V8.30781C5.65138 7.57387 5.94902 6.86996 6.47887 6.35078C7.00873 5.83159 7.72744 5.53962 8.47707 5.53903H50.8678C51.6177 5.53982 52.3367 5.83173 52.8671 6.35077C53.3975 6.8698 53.696 7.57359 53.6972 8.30781V27.6922ZM59.3486 24.9234H56.5191V11.0766H59.3471L59.3486 24.9234ZM19.7798 8.30781H28.2584V27.6922H19.7798V8.30781ZM31.0864 8.30781H39.5657V27.6922H31.0864V8.30781ZM8.47707 13.8468V22.1546C8.47707 25.1997 10.3841 27.6937 12.7175 27.6937H16.9541V8.30929H12.7175C10.3841 8.30929 8.47707 10.8018 8.47707 13.8483V13.8468Z" fill="#0A0C1B"/>
<path d="M42.2011 8.30781V27.6937L46.1836 27.6929C49.6962 26.6519 49.9375 25.3951 50.1661 23.0748V12.3057C50.0171 10.0945 48.3993 9.34115 46.19 8.31231L46.1836 8.30929L42.2011 8.30781Z" fill="#0A0C1B"/>
<path d="M46.4011 7.85905C46.399 7.85804 46.3968 7.85704 46.3946 7.85603L45.9725 8.76255C45.9746 8.76356 45.9768 8.76456 45.979 8.76557L46.4011 7.85905ZM58.8616 5.53903L57.9212 5.8791L58.587 7.72014L59.6884 6.10162L58.8616 5.53903ZM50.8678 0L50.869 -1H50.8678V0ZM8.47707 0L8.47707 -1L8.4755 -0.999999L8.47707 0ZM0 8.30781L-1 8.30717V8.30781H0ZM0 27.6922L-1 27.6922L-1 27.6928L0 27.6922ZM8.47707 36L8.4755 37H8.47707V36ZM50.8678 36L50.8678 37L50.8691 37L50.8678 36ZM58.8609 30.461V29.461H58.1591L57.9205 30.1209L58.8609 30.461ZM65 30.461V31.461H66V30.461H65ZM65 5.5368H66V4.5368H65V5.5368ZM58.8631 5.5368V4.5368H58.334L58.0364 4.97422L58.8631 5.5368ZM53.6972 27.6922L54.6972 27.6938V27.6922H53.6972ZM50.8693 30.461L50.8693 31.461L50.8708 31.461L50.8693 30.461ZM8.47707 30.461L8.47576 31.461H8.47707V30.461ZM5.65138 27.6922L4.65138 27.6922L4.65138 27.6927L5.65138 27.6922ZM5.65138 8.30781L6.65138 8.30781L6.65138 8.30781L5.65138 8.30781ZM8.47707 5.53903L8.47707 4.53903L8.47629 4.53903L8.47707 5.53903ZM50.8678 5.53903L50.8688 4.53903H50.8678V5.53903ZM53.6972 8.30781L54.6972 8.30781L54.6972 8.30617L53.6972 8.30781ZM59.3486 24.9234V25.9234H60.3487L60.3486 24.9233L59.3486 24.9234ZM56.5191 24.9234H55.5191V25.9234H56.5191V24.9234ZM56.5191 11.0766V10.0766H55.5191V11.0766H56.5191ZM59.3471 11.0766L60.3471 11.0765L60.347 10.0766H59.3471V11.0766ZM19.7798 8.30781V7.30781H18.7798V8.30781H19.7798ZM28.2584 8.30781H29.2584V7.30781H28.2584V8.30781ZM28.2584 27.6922V28.6922H29.2584V27.6922H28.2584ZM19.7798 27.6922H18.7798V28.6922H19.7798V27.6922ZM31.0864 8.30781V7.30781H30.0864V8.30781H31.0864ZM39.5657 8.30781H40.5657V7.30781H39.5657V8.30781ZM39.5657 27.6922V28.6922H40.5657V27.6922H39.5657ZM31.0864 27.6922H30.0864V28.6922H31.0864V27.6922ZM16.9541 27.6937V28.6937H17.9541V27.6937H16.9541ZM16.9541 8.30929H17.9541V7.30929H16.9541V8.30929ZM42.2011 8.30781L42.2014 7.30781L41.2011 7.30743V8.30781H42.2011ZM42.2011 27.6937H41.2011V28.6939L42.2012 28.6937L42.2011 27.6937ZM46.1836 27.6929L46.1838 28.6929L46.3287 28.6929L46.4677 28.6517L46.1836 27.6929ZM50.1661 23.0748L51.1613 23.1729L51.1661 23.124V23.0748H50.1661ZM50.1661 12.3057H51.1661V12.2721L51.1638 12.2385L50.1661 12.3057ZM46.1836 8.30929L46.6057 7.40277L46.4052 7.30937L46.1839 7.30929L46.1836 8.30929ZM46.19 8.31231L45.7679 9.21883L45.7679 9.21883L46.19 8.31231ZM59.802 5.19897C59.1453 3.38289 57.9318 1.81413 56.332 0.705611L55.1929 2.34953C56.4557 3.22458 57.4075 4.45843 57.9212 5.8791L59.802 5.19897ZM56.332 0.705611C54.7324 -0.402719 52.8241 -0.997578 50.869 -0.999999L50.8665 0.999999C52.4184 1.00192 53.9298 1.4743 55.1929 2.34953L56.332 0.705611ZM50.8678 -1H8.47707V1H50.8678V-1ZM8.4755 -0.999999C5.96881 -0.996052 3.56192 -0.0189341 1.78398 1.7235L3.18386 3.15191C4.58436 1.77938 6.48815 1.00313 8.47865 0.999999L8.4755 -0.999999ZM1.78398 1.7235C0.00532933 3.46664 -0.998423 5.83392 -1 8.30717L1 8.30844C1.00123 6.37864 1.78408 4.52374 3.18386 3.15191L1.78398 1.7235ZM-1 8.30781V27.6922H1V8.30781H-1ZM-1 27.6928C-0.998423 30.1661 0.00532933 32.5334 1.78398 34.2765L3.18386 32.8481C1.78408 31.4763 1.00123 29.6214 1 27.6916L-1 27.6928ZM1.78398 34.2765C3.56192 36.0189 5.96881 36.9961 8.4755 37L8.47865 35C6.48815 34.9969 4.58436 34.2206 3.18386 32.8481L1.78398 34.2765ZM8.47707 37H50.8678V35H8.47707V37ZM50.8691 37C52.8241 36.9974 54.7322 36.4025 56.3316 35.2941L55.1924 33.6503C53.9294 34.5255 52.4182 34.9979 50.8664 35L50.8691 37ZM56.3316 35.2941C57.9312 34.1856 59.1446 32.617 59.8013 30.801L57.9205 30.1209C57.4068 31.5415 56.4551 32.7752 55.1924 33.6503L56.3316 35.2941ZM58.8609 31.461H65V29.461H58.8609V31.461ZM66 30.461V5.5368H64V30.461H66ZM65 4.5368H58.8631V6.5368H65V4.5368ZM58.0364 4.97422L58.0349 4.97645L59.6884 6.10162L59.6899 6.09939L58.0364 4.97422ZM52.6972 27.6906C52.6965 28.153 52.5087 28.6006 52.168 28.9342L53.5672 30.3633C54.2867 29.6588 54.6956 28.6993 54.6972 27.6938L52.6972 27.6906ZM52.168 28.9342C51.8266 29.2684 51.3594 29.4602 50.8677 29.461L50.8708 31.461C51.8784 31.4594 52.8484 31.067 53.5672 30.3633L52.168 28.9342ZM50.8693 29.461H8.47707V31.461H50.8693V29.461ZM8.47839 29.461C7.98704 29.4603 7.52018 29.2686 7.17919 28.9345L5.77944 30.3631C6.49799 31.0671 7.4681 31.4596 8.47576 31.461L8.47839 29.461ZM7.17919 28.9345C6.83892 28.6011 6.65163 28.1537 6.65138 27.6916L4.65138 27.6927C4.65193 28.6983 5.06017 29.6583 5.77944 30.3631L7.17919 28.9345ZM6.65138 27.6922V8.30781H4.65138V27.6922H6.65138ZM6.65138 8.30781C6.65138 7.84585 6.83852 7.39841 7.17875 7.06504L5.77899 5.63651C5.05951 6.3415 4.65138 7.30189 4.65138 8.30781L6.65138 8.30781ZM7.17875 7.06504C7.51969 6.73097 7.98657 6.53942 8.47786 6.53903L8.47629 4.53903C7.46832 4.53983 6.49776 4.93222 5.77899 5.63651L7.17875 7.06504ZM8.47707 6.53903H50.8678V4.53903H8.47707V6.53903ZM50.8667 6.53903C51.3586 6.53955 51.8261 6.73122 52.1677 7.0655L53.5665 5.63603C52.8473 4.93225 51.8767 4.54009 50.8688 4.53903L50.8667 6.53903ZM52.1677 7.0655C52.5086 7.39908 52.6965 7.84687 52.6972 8.30945L54.6972 8.30617C54.6956 7.3003 54.2864 6.34051 53.5665 5.63603L52.1677 7.0655ZM52.6972 8.30781V27.6922H54.6972V8.30781H52.6972ZM59.3486 23.9234H56.5191V25.9234H59.3486V23.9234ZM57.5191 24.9234V11.0766H55.5191V24.9234H57.5191ZM56.5191 12.0766H59.3471V10.0766H56.5191V12.0766ZM58.3471 11.0767L58.3486 24.9235L60.3486 24.9233L60.3471 11.0765L58.3471 11.0767ZM19.7798 9.30781H28.2584V7.30781H19.7798V9.30781ZM27.2584 8.30781V27.6922H29.2584V8.30781H27.2584ZM28.2584 26.6922H19.7798V28.6922H28.2584V26.6922ZM20.7798 27.6922V8.30781H18.7798V27.6922H20.7798ZM31.0864 9.30781H39.5657V7.30781H31.0864V9.30781ZM38.5657 8.30781V27.6922H40.5657V8.30781H38.5657ZM39.5657 26.6922H31.0864V28.6922H39.5657V26.6922ZM32.0864 27.6922V8.30781H30.0864V27.6922H32.0864ZM7.47707 13.8468V22.1546H9.47707V13.8468H7.47707ZM7.47707 22.1546C7.47707 23.8793 8.01589 25.4818 8.92814 26.6738C9.84036 27.8658 11.1716 28.6937 12.7175 28.6937V26.6937C11.93 26.6937 11.1411 26.2746 10.5164 25.4583C9.89178 24.6421 9.47707 23.475 9.47707 22.1546H7.47707ZM12.7175 28.6937H16.9541V26.6937H12.7175V28.6937ZM17.9541 27.6937V8.30929H15.9541V27.6937H17.9541ZM16.9541 7.30929H12.7175V9.30929H16.9541V7.30929ZM12.7175 7.30929C11.1719 7.30929 9.84054 8.13659 8.92819 9.32855C8.01585 10.5205 7.47707 12.123 7.47707 13.8483H9.47707C9.47707 12.5271 9.89183 11.3601 10.5164 10.5442C11.1409 9.72824 11.9298 9.30929 12.7175 9.30929V7.30929ZM9.47707 13.8483V13.8468H7.47707V13.8483H9.47707ZM41.2011 8.30781V27.6937H43.2011V8.30781H41.2011ZM42.2012 28.6937L46.1838 28.6929L46.1834 26.6929L42.2009 26.6937L42.2012 28.6937ZM46.4677 28.6517C48.2925 28.1109 49.4942 27.4544 50.2183 26.4474C50.927 25.4617 51.0509 24.2931 51.1613 23.1729L49.1709 22.9768C49.0527 24.1768 48.9417 24.7968 48.5944 25.2799C48.2625 25.7415 47.5873 26.2339 45.8994 26.7342L46.4677 28.6517ZM51.1661 23.0748V12.3057H49.1661V23.0748H51.1661ZM42.2007 9.30781L46.1832 9.30929L46.1839 7.30929L42.2014 7.30781L42.2007 9.30781ZM51.1638 12.2385C51.0699 10.8448 50.4884 9.85898 49.5977 9.10317C48.7742 8.40437 47.6784 7.90232 46.6122 7.40579L45.7679 9.21883C46.9109 9.75114 47.7287 10.1402 48.3037 10.6281C48.8115 11.059 49.1133 11.5555 49.1683 12.373L51.1638 12.2385ZM46.6122 7.40579L46.6057 7.40277L45.7614 9.21581L45.7679 9.21883L46.6122 7.40579Z" fill="#0A0C1B" mask="url(#path-1-inside-1)"/>
</svg>
