<svg width="150" height="166" viewBox="0 0 150 166" fill="none" xmlns="http://www.w3.org/2000/svg">
<path d="M74.7918 165.946C59.9898 165.909 45.5297 161.494 33.2338 153.256C20.9379 145.018 11.3565 133.326 5.69687 119.654C0.0372877 105.981 -1.44713 90.9399 1.43068 76.4254C4.30849 61.9108 11.4197 48.5726 21.8683 38.0916C25.936 34.025 30.4567 30.4378 35.3417 27.4004C36.8331 26.4737 38.6316 26.1773 40.3416 26.5762C42.0516 26.9751 43.533 28.0368 44.46 29.5276C45.387 31.0184 45.6836 32.8163 45.2845 34.5257C44.8854 36.2351 43.8234 37.7161 42.332 38.6427C34.4275 43.5535 27.7356 50.187 22.7569 58.0473C17.7782 65.9076 14.6414 74.7913 13.5811 84.0342C12.5207 93.277 13.5643 102.64 16.6337 111.423C19.7031 120.206 24.719 128.181 31.3063 134.754C42.8862 146.329 58.5918 152.833 74.9682 152.833C91.3446 152.833 107.05 146.329 118.63 134.754C130.21 123.178 136.715 107.478 136.715 91.1069C136.715 74.7362 130.21 59.036 118.63 47.4602C115.24 44.0998 111.474 41.1411 107.406 38.6427C106.657 38.1903 106.006 37.5939 105.489 36.8881C104.972 36.1823 104.601 35.381 104.396 34.5307C104.191 33.6804 104.157 32.7979 104.296 31.9344C104.435 31.0708 104.744 30.2434 105.204 29.4999C105.665 28.7565 106.269 28.1118 106.981 27.6032C107.693 27.0945 108.498 26.7321 109.351 26.5368C110.204 26.3416 111.087 26.3174 111.949 26.4656C112.811 26.6138 113.636 26.9316 114.374 27.4004C124.011 33.3403 132.178 41.385 138.26 50.9307C144.343 60.4763 148.184 71.2752 149.495 82.5168C150.807 93.7585 149.554 105.151 145.832 115.84C142.109 126.528 136.014 136.235 128.002 144.232C121.014 151.195 112.711 156.7 103.577 160.427C94.4422 164.155 84.6578 166.03 74.7918 165.946Z" fill="#0A0C1B"/>
<path d="M74.7918 83.7663C73.0373 83.7663 71.3546 83.0696 70.114 81.8294C68.8734 80.5892 68.1764 78.9071 68.1764 77.1532V6.61313C68.1764 5.74468 68.3475 4.88474 68.68 4.0824C69.0124 3.28005 69.4997 2.55103 70.114 1.93694C70.7283 1.32286 71.4576 0.835737 72.2602 0.503396C73.0628 0.171055 73.9231 0 74.7918 0C75.6606 0 76.5208 0.171055 77.3234 0.503396C78.1261 0.835737 78.8553 1.32286 79.4696 1.93694C80.0839 2.55103 80.5712 3.28005 80.9037 4.0824C81.2361 4.88474 81.4073 5.74468 81.4073 6.61313V77.1532C81.4073 78.9071 80.7103 80.5892 79.4696 81.8294C78.229 83.0696 76.5463 83.7663 74.7918 83.7663Z" fill="#0A0C1B"/>
</svg>
