<svg width="232" height="150" viewBox="0 0 232 150" fill="none" xmlns="http://www.w3.org/2000/svg">
<mask id="path-1-inside-1" fill="white">
<path d="M100.043 62.4313C100.025 61.5953 99.6889 60.7919 99.0987 60.1929C99.0725 60.1663 99.0513 60.1448 99.0202 60.1198C98.3806 59.5106 97.5326 59.195 96.6553 59.2255L13.4625 62.2533C11.7442 62.3145 10.366 63.6952 10.304 65.4109L10.1296 70.5335C10.1009 71.412 10.4283 72.2796 11.0495 72.9168C11.0528 72.9201 11.0626 72.93 11.0675 72.935C11.6805 73.5573 12.5217 73.9124 13.4004 73.9066L96.8981 73.6652C97.7785 73.6611 98.6173 73.3123 99.2274 72.6915C99.8426 72.0625 100.179 71.2173 100.169 70.3353L100.043 62.4313ZM13.3979 70.6358L13.5788 65.5199L96.765 62.492L96.8956 70.3978L13.3979 70.6358Z"/>
<path d="M161.968 44.8611C161.811 44.3062 161.521 43.8295 161.142 43.4445C160.374 42.6646 159.236 42.2878 158.101 42.5391C139.811 46.6683 118.829 52.6508 118.621 52.7121C117.229 53.1051 116.268 54.3698 116.241 55.8088L116.148 61.6095C116.134 62.5161 116.5 63.3494 117.091 63.9501C117.665 64.5325 118.46 64.9038 119.344 64.9228C119.691 64.93 153.69 65.6871 159.78 65.907C161.375 65.967 162.779 64.8718 163.102 63.3045C164.785 55.2607 162.08 45.2872 161.968 44.8611ZM119.42 61.6559L119.509 55.8585C119.509 55.8585 140.407 49.8803 158.81 45.742C158.81 45.742 161.436 55.2765 159.898 62.6453C153.724 62.41 119.42 61.6559 119.42 61.6559Z"/>
<path d="M167.693 31.3428C167.016 30.6558 166.29 30.3411 165.501 30.4546L115.696 43.9785C112.539 44.3912 109.811 46.6663 108.075 49.8283C107.968 49.8161 107.897 49.7167 107.783 49.7209L72.8967 51.378L72.8299 49.4916C72.7649 47.7965 72.067 46.2703 70.9602 45.1469C69.7145 43.8824 67.9601 43.129 66.0488 43.2005L50.4976 43.8066C46.8977 43.9394 44.0598 46.9936 44.2014 50.5917L44.2743 52.7435L6.44582 54.5395C3.01848 54.7312 0.252443 58.4733 0.185868 62.9207L0.000483981 87.0495C-0.0250528 89.7299 0.961895 92.1812 2.50679 93.7493C3.51711 94.7748 4.75317 95.4176 6.10918 95.5107L107.345 101.667C107.594 101.681 107.791 101.595 108.001 101.515C108.544 102.429 109.159 103.269 109.86 103.981C111.362 105.505 113.177 106.53 115.176 106.813L164.737 120.972C175.698 122.668 177.106 40.8974 167.693 31.3428ZM48.3434 48.1231C48.9323 47.4808 49.7481 47.1087 50.6189 47.0749L66.1651 46.4703C67.0968 46.4353 67.9776 46.7774 68.6315 47.4411C69.2054 48.0236 69.5303 48.7956 69.5598 49.6168L69.6313 51.5279L47.5415 52.3728L47.475 50.46C47.4376 49.6009 47.7445 48.7687 48.3434 48.1231ZM6.33077 92.248C5.70135 92.2075 5.17726 91.7919 4.84048 91.4501C3.8596 90.4545 3.2536 88.7822 3.2711 87.0711L3.45797 62.9604C3.49717 60.0246 5.16022 57.8826 6.59512 57.8063L70.4946 54.7714L73.0194 54.671L73.0163 54.6479L106.743 53.0507C106.746 53.054 106.751 53.0788 106.753 53.087C106.376 54.4133 106.133 55.8031 106.115 57.2438L105.813 93.4195C105.802 94.9344 106.072 96.3886 106.459 97.7825C106.427 97.9587 106.402 98.1861 106.367 98.3309L6.33077 92.248ZM164.815 117.59L116.081 103.666C115.935 103.627 115.788 103.594 115.635 103.575C114.433 103.399 113.243 102.75 112.194 101.685C111.11 100.584 110.299 99.1432 109.772 97.5571C109.337 96.2585 109.077 94.8637 109.085 93.4394L109.387 57.2835C109.406 55.9401 109.674 54.6395 110.078 53.4272C111.181 50.1373 113.497 47.5578 116.117 47.219C116.261 47.2018 116.41 47.1698 116.55 47.1329L165.534 33.8327C169.504 38.6332 172.256 68.1441 169.714 95.5429C168.18 112.168 165.613 116.588 164.815 117.59Z"/>
<path d="M172.609 26.578C172.65 26.6261 172.691 26.6741 172.732 26.7156C173.309 27.3014 174.246 27.3686 174.908 26.847L205.271 2.92422C205.981 2.36511 206.105 1.33722 205.547 0.627949C204.961 -0.0963419 203.962 -0.203508 203.251 0.355608L172.889 24.2784C172.175 24.8408 172.055 25.8654 172.609 26.578Z"/>
<path d="M188.534 58.0355C188.614 58.2932 188.753 58.5101 188.924 58.6843C189.346 59.1124 189.983 59.2897 190.589 59.0943L227.389 47.3177C228.252 47.0432 228.726 46.1214 228.452 45.2607C228.179 44.3852 227.251 43.9257 226.396 44.202L189.6 55.9786C188.738 56.2548 188.261 57.1732 188.534 58.0355Z"/>
<path d="M190.33 92.4809C190.567 92.7215 190.879 92.8884 191.242 92.9436L229.381 98.9473C230.273 99.0884 231.113 98.4774 231.254 97.5831C231.396 96.6939 230.792 95.854 229.893 95.7162L191.75 89.7157C190.857 89.5746 190.021 90.1824 189.88 91.0766C189.797 91.6102 189.977 92.1225 190.33 92.4809Z"/>
<path d="M204.606 146.847L174.139 123.164C173.421 122.612 172.398 122.74 171.84 123.454C171.33 124.107 171.397 125.029 171.962 125.603C172.011 125.653 172.069 125.704 172.124 125.747L202.592 149.431C203.309 149.983 204.332 149.854 204.887 149.144C205.444 148.432 205.292 147.398 204.606 146.847Z"/>
</mask>
<path d="M100.043 62.4313C100.025 61.5953 99.6889 60.7919 99.0987 60.1929C99.0725 60.1663 99.0513 60.1448 99.0202 60.1198C98.3806 59.5106 97.5326 59.195 96.6553 59.2255L13.4625 62.2533C11.7442 62.3145 10.366 63.6952 10.304 65.4109L10.1296 70.5335C10.1009 71.412 10.4283 72.2796 11.0495 72.9168C11.0528 72.9201 11.0626 72.93 11.0675 72.935C11.6805 73.5573 12.5217 73.9124 13.4004 73.9066L96.8981 73.6652C97.7785 73.6611 98.6173 73.3123 99.2274 72.6915C99.8426 72.0625 100.179 71.2173 100.169 70.3353L100.043 62.4313ZM13.3979 70.6358L13.5788 65.5199L96.765 62.492L96.8956 70.3978L13.3979 70.6358Z" fill="white"/>
<path d="M161.968 44.8611C161.811 44.3062 161.521 43.8295 161.142 43.4445C160.374 42.6646 159.236 42.2878 158.101 42.5391C139.811 46.6683 118.829 52.6508 118.621 52.7121C117.229 53.1051 116.268 54.3698 116.241 55.8088L116.148 61.6095C116.134 62.5161 116.5 63.3494 117.091 63.9501C117.665 64.5325 118.46 64.9038 119.344 64.9228C119.691 64.93 153.69 65.6871 159.78 65.907C161.375 65.967 162.779 64.8718 163.102 63.3045C164.785 55.2607 162.08 45.2872 161.968 44.8611ZM119.42 61.6559L119.509 55.8585C119.509 55.8585 140.407 49.8803 158.81 45.742C158.81 45.742 161.436 55.2765 159.898 62.6453C153.724 62.41 119.42 61.6559 119.42 61.6559Z" fill="white"/>
<path d="M167.693 31.3428C167.016 30.6558 166.29 30.3411 165.501 30.4546L115.696 43.9785C112.539 44.3912 109.811 46.6663 108.075 49.8283C107.968 49.8161 107.897 49.7167 107.783 49.7209L72.8967 51.378L72.8299 49.4916C72.7649 47.7965 72.067 46.2703 70.9602 45.1469C69.7145 43.8824 67.9601 43.129 66.0488 43.2005L50.4976 43.8066C46.8977 43.9394 44.0598 46.9936 44.2014 50.5917L44.2743 52.7435L6.44582 54.5395C3.01848 54.7312 0.252443 58.4733 0.185868 62.9207L0.000483981 87.0495C-0.0250528 89.7299 0.961895 92.1812 2.50679 93.7493C3.51711 94.7748 4.75317 95.4176 6.10918 95.5107L107.345 101.667C107.594 101.681 107.791 101.595 108.001 101.515C108.544 102.429 109.159 103.269 109.86 103.981C111.362 105.505 113.177 106.53 115.176 106.813L164.737 120.972C175.698 122.668 177.106 40.8974 167.693 31.3428ZM48.3434 48.1231C48.9323 47.4808 49.7481 47.1087 50.6189 47.0749L66.1651 46.4703C67.0968 46.4353 67.9776 46.7774 68.6315 47.4411C69.2054 48.0236 69.5303 48.7956 69.5598 49.6168L69.6313 51.5279L47.5415 52.3728L47.475 50.46C47.4376 49.6009 47.7445 48.7687 48.3434 48.1231ZM6.33077 92.248C5.70135 92.2075 5.17726 91.7919 4.84048 91.4501C3.8596 90.4545 3.2536 88.7822 3.2711 87.0711L3.45797 62.9604C3.49717 60.0246 5.16022 57.8826 6.59512 57.8063L70.4946 54.7714L73.0194 54.671L73.0163 54.6479L106.743 53.0507C106.746 53.054 106.751 53.0788 106.753 53.087C106.376 54.4133 106.133 55.8031 106.115 57.2438L105.813 93.4195C105.802 94.9344 106.072 96.3886 106.459 97.7825C106.427 97.9587 106.402 98.1861 106.367 98.3309L6.33077 92.248ZM164.815 117.59L116.081 103.666C115.935 103.627 115.788 103.594 115.635 103.575C114.433 103.399 113.243 102.75 112.194 101.685C111.11 100.584 110.299 99.1432 109.772 97.5571C109.337 96.2585 109.077 94.8637 109.085 93.4394L109.387 57.2835C109.406 55.9401 109.674 54.6395 110.078 53.4272C111.181 50.1373 113.497 47.5578 116.117 47.219C116.261 47.2018 116.41 47.1698 116.55 47.1329L165.534 33.8327C169.504 38.6332 172.256 68.1441 169.714 95.5429C168.18 112.168 165.613 116.588 164.815 117.59Z" fill="white"/>
<path d="M172.609 26.578C172.65 26.6261 172.691 26.6741 172.732 26.7156C173.309 27.3014 174.246 27.3686 174.908 26.847L205.271 2.92422C205.981 2.36511 206.105 1.33722 205.547 0.627949C204.961 -0.0963419 203.962 -0.203508 203.251 0.355608L172.889 24.2784C172.175 24.8408 172.055 25.8654 172.609 26.578Z" fill="white"/>
<path d="M188.534 58.0355C188.614 58.2932 188.753 58.5101 188.924 58.6843C189.346 59.1124 189.983 59.2897 190.589 59.0943L227.389 47.3177C228.252 47.0432 228.726 46.1214 228.452 45.2607C228.179 44.3852 227.251 43.9257 226.396 44.202L189.6 55.9786C188.738 56.2548 188.261 57.1732 188.534 58.0355Z" fill="white"/>
<path d="M190.33 92.4809C190.567 92.7215 190.879 92.8884 191.242 92.9436L229.381 98.9473C230.273 99.0884 231.113 98.4774 231.254 97.5831C231.396 96.6939 230.792 95.854 229.893 95.7162L191.75 89.7157C190.857 89.5746 190.021 90.1824 189.88 91.0766C189.797 91.6102 189.977 92.1225 190.33 92.4809Z" fill="white"/>
<path d="M204.606 146.847L174.139 123.164C173.421 122.612 172.398 122.74 171.84 123.454C171.33 124.107 171.397 125.029 171.962 125.603C172.011 125.653 172.069 125.704 172.124 125.747L202.592 149.431C203.309 149.983 204.332 149.854 204.887 149.144C205.444 148.432 205.292 147.398 204.606 146.847Z" fill="white"/>
<path d="M100.043 62.4313L108.042 62.3041L108.042 62.2826L108.041 62.261L100.043 62.4313ZM99.0987 60.1929L93.3998 65.8074L93.3998 65.8074L99.0987 60.1929ZM99.0202 60.1198L93.5022 65.9122L93.7502 66.1485L94.0176 66.3628L99.0202 60.1198ZM96.6553 59.2255L96.3776 51.2303L96.3643 51.2308L96.6553 59.2255ZM13.4625 62.2533L13.7472 70.2483L13.7535 70.248L13.4625 62.2533ZM10.304 65.4109L2.3092 65.1218L2.3089 65.1303L2.30861 65.1387L10.304 65.4109ZM10.1296 70.5335L2.13421 70.2613L2.13386 70.2721L10.1296 70.5335ZM11.0495 72.9168L5.32129 78.5014L5.33594 78.5164L5.35066 78.5313L11.0495 72.9168ZM11.0675 72.935L5.36864 78.5496L5.36864 78.5496L11.0675 72.935ZM13.4004 73.9066L13.3773 65.9066L13.3627 65.9067L13.3482 65.9068L13.4004 73.9066ZM96.8981 73.6652L96.9213 81.6652L96.9352 81.6651L96.8981 73.6652ZM99.2274 72.6915L104.933 78.2994L104.94 78.2924L104.947 78.2853L99.2274 72.6915ZM100.169 70.3353L108.168 70.2372L108.168 70.2227L108.168 70.2081L100.169 70.3353ZM13.3979 70.6358L5.40288 70.3531L5.10912 78.6595L13.4207 78.6358L13.3979 70.6358ZM13.5788 65.5199L13.2878 57.5252L5.84697 57.796L5.58381 65.2372L13.5788 65.5199ZM96.765 62.492L104.764 62.3599L104.629 54.2005L96.474 54.4973L96.765 62.492ZM96.8956 70.3978L96.9184 78.3977L105.028 78.3746L104.894 70.2656L96.8956 70.3978ZM161.968 44.8611L169.705 42.8296L169.686 42.7565L169.666 42.6839L161.968 44.8611ZM161.142 43.4445L155.443 49.059L161.142 43.4445ZM158.101 42.5391L156.371 34.7284L156.355 34.7319L156.34 34.7355L158.101 42.5391ZM118.621 52.7121L120.795 60.4108L120.837 60.399L120.879 60.3867L118.621 52.7121ZM116.241 55.8088L108.242 55.66L108.242 55.6705L108.242 55.6811L116.241 55.8088ZM116.148 61.6095L108.149 61.4818L108.149 61.485L116.148 61.6095ZM117.091 63.9501L122.79 58.3356L122.79 58.3356L117.091 63.9501ZM119.344 64.9228L119.171 72.9209L119.177 72.9211L119.344 64.9228ZM159.78 65.907L160.081 57.9127L160.069 57.9123L159.78 65.907ZM163.102 63.3045L155.272 61.6667L155.269 61.6784L155.267 61.69L163.102 63.3045ZM119.42 61.6559L111.421 61.5326L111.299 69.4792L119.244 69.6539L119.42 61.6559ZM119.509 55.8585L117.309 48.167L111.602 49.7997L111.51 55.7352L119.509 55.8585ZM158.81 45.742L166.523 43.6176L164.497 36.2634L157.055 37.9369L158.81 45.742ZM159.898 62.6453L159.593 70.6395L166.348 70.897L167.729 64.2801L159.898 62.6453ZM167.693 31.3428L161.994 36.9574L167.693 31.3428ZM165.501 30.4546L164.362 22.5361L163.878 22.6058L163.405 22.7342L165.501 30.4546ZM115.696 43.9785L116.733 51.911L117.27 51.8408L117.792 51.6989L115.696 43.9785ZM108.075 49.8283L107.166 57.7765L112.503 58.387L115.088 53.6781L108.075 49.8283ZM107.783 49.7209L107.488 41.7263L107.446 41.7279L107.403 41.7299L107.783 49.7209ZM72.8967 51.378L64.9017 51.661L65.1882 59.7532L73.2763 59.369L72.8967 51.378ZM72.8299 49.4916L80.8249 49.2086L80.8245 49.1967L80.8241 49.1848L72.8299 49.4916ZM70.9602 45.1469L76.6591 39.5323L76.6591 39.5323L70.9602 45.1469ZM66.0488 43.2005L65.7499 35.206L65.7372 35.2065L66.0488 43.2005ZM50.4976 43.8066L50.7926 51.8012L50.8009 51.8009L50.8092 51.8005L50.4976 43.8066ZM44.2014 50.5917L52.1969 50.3211L52.1961 50.2991L52.1952 50.2771L44.2014 50.5917ZM44.2743 52.7435L44.6536 60.7345L52.5366 60.3603L52.2697 52.473L44.2743 52.7435ZM6.44582 54.5395L6.06644 46.5485L6.03277 46.5501L5.99913 46.552L6.44582 54.5395ZM0.185868 62.9207L-7.81324 62.8009L-7.81367 62.8301L-7.8139 62.8592L0.185868 62.9207ZM0.000483981 87.0495L8.00012 87.1257L8.00019 87.1183L8.00025 87.1109L0.000483981 87.0495ZM2.50679 93.7493L8.20564 88.1347L2.50679 93.7493ZM6.10918 95.5107L5.5616 103.492L5.59256 103.494L5.62355 103.496L6.10918 95.5107ZM107.345 101.667L106.86 109.653L106.891 109.655L106.922 109.656L107.345 101.667ZM108.001 101.515L114.878 97.4275L111.449 91.6593L105.172 94.032L108.001 101.515ZM109.86 103.981L104.161 109.595L104.161 109.595L109.86 103.981ZM115.176 106.813L117.374 99.121L116.845 98.9698L116.3 98.8925L115.176 106.813ZM164.737 120.972L162.54 128.664L163.02 128.802L163.514 128.878L164.737 120.972ZM48.3434 48.1231L54.2085 53.5637L54.2244 53.5467L54.2401 53.5295L48.3434 48.1231ZM50.6189 47.0749L50.9293 55.0688L50.9297 55.0688L50.6189 47.0749ZM66.1651 46.4703L65.8643 38.476L65.8542 38.4764L66.1651 46.4703ZM68.6315 47.4411L74.3304 41.8266L74.3304 41.8266L68.6315 47.4411ZM69.5598 49.6168L61.5649 49.9035L61.5654 49.916L69.5598 49.6168ZM69.6313 51.5279L69.937 59.5221L77.9246 59.2166L77.6257 51.2287L69.6313 51.5279ZM47.5415 52.3728L39.5464 52.651L39.8255 60.6737L47.8473 60.3669L47.5415 52.3728ZM47.475 50.46L55.4701 50.1818L55.4689 50.147L55.4674 50.1123L47.475 50.46ZM6.33077 92.248L5.81801 100.232L5.83161 100.232L5.84521 100.233L6.33077 92.248ZM4.84048 91.4501L10.5393 85.8356L10.5393 85.8356L4.84048 91.4501ZM3.2711 87.0711L11.2707 87.1528L11.2708 87.143L11.2709 87.1331L3.2711 87.0711ZM3.45797 62.9604L-4.54131 62.8536L-4.54161 62.876L-4.54178 62.8984L3.45797 62.9604ZM6.59512 57.8063L6.21558 49.8153L6.1931 49.8164L6.17062 49.8176L6.59512 57.8063ZM70.4946 54.7714L70.1768 46.7777L70.1459 46.7789L70.1151 46.7804L70.4946 54.7714ZM73.0194 54.671L73.3372 62.6647L82.1158 62.3157L80.9485 53.6081L73.0194 54.671ZM73.0163 54.6479L72.6379 46.6569L63.9288 47.0693L65.0872 55.7109L73.0163 54.6479ZM106.743 53.0507L112.442 47.4362L109.934 44.8906L106.365 45.0597L106.743 53.0507ZM106.753 53.087L114.448 55.2744L114.967 53.4478L114.61 51.5827L106.753 53.087ZM106.115 57.2438L98.1155 57.1408L98.1152 57.1589L98.1151 57.1771L106.115 57.2438ZM105.813 93.4195L97.8133 93.3527L97.8132 93.3618L105.813 93.4195ZM106.459 97.7825L114.324 99.2461L114.663 97.4251L114.167 95.6404L106.459 97.7825ZM106.367 98.3309L105.882 106.316L112.607 106.725L114.154 100.168L106.367 98.3309ZM164.815 117.59L162.617 125.282L167.748 126.748L171.073 122.574L164.815 117.59ZM116.081 103.666L118.279 95.9733L118.207 95.9528L118.135 95.9336L116.081 103.666ZM115.635 103.575L114.475 111.491L114.559 111.503L114.643 111.513L115.635 103.575ZM112.194 101.685L117.893 96.0701L117.893 96.0701L112.194 101.685ZM109.772 97.5571L117.363 95.0322L117.358 95.0196L109.772 97.5571ZM109.085 93.4394L101.086 93.3727L101.085 93.3821L101.085 93.3916L109.085 93.4394ZM109.387 57.2835L101.388 57.1681L101.387 57.1924L101.387 57.2168L109.387 57.2835ZM110.078 53.4272L102.493 50.8858L102.489 50.8976L110.078 53.4272ZM116.117 47.219L115.167 39.2757L115.129 39.2802L115.092 39.285L116.117 47.219ZM116.55 47.1329L118.588 54.869L118.617 54.8613L118.646 54.8533L116.55 47.1329ZM165.534 33.8327L171.7 28.7347L168.414 24.7612L163.438 26.1123L165.534 33.8327ZM169.714 95.5429L161.748 94.8039L161.748 94.8077L169.714 95.5429ZM172.609 26.578L166.296 31.4917L166.401 31.6259L166.511 31.7554L172.609 26.578ZM172.732 26.7156L167.033 32.3302L167.033 32.3302L172.732 26.7156ZM174.908 26.847L179.859 33.1317L179.86 33.1309L174.908 26.847ZM205.271 2.92422L200.323 -3.36169L200.32 -3.35963L205.271 2.92422ZM205.547 0.627949L211.835 -4.31817L211.801 -4.36084L211.767 -4.40304L205.547 0.627949ZM203.251 0.355608L198.303 -5.93031L198.3 -5.92825L203.251 0.355608ZM172.889 24.2784L167.938 17.9946L167.937 17.9953L172.889 24.2784ZM188.534 58.0355L196.172 55.6559L196.166 55.638L196.161 55.6202L188.534 58.0355ZM188.924 58.6843L183.225 64.2989L183.225 64.2989L188.924 58.6843ZM190.589 59.0943L188.151 51.4749L188.143 51.4773L188.136 51.4798L190.589 59.0943ZM227.389 47.3177L224.964 39.6943L224.951 39.6984L227.389 47.3177ZM228.452 45.2607L220.814 47.6421L220.822 47.6679L220.831 47.6936L228.452 45.2607ZM226.396 44.202L228.835 51.8213L228.846 51.8177L228.857 51.8141L226.396 44.202ZM189.6 55.9786L187.161 48.3593L187.156 48.3608L189.6 55.9786ZM190.33 92.4809L184.632 98.0954L190.33 92.4809ZM191.242 92.9436L192.486 85.0409L192.466 85.0377L192.446 85.0347L191.242 92.9436ZM229.381 98.9473L230.63 91.0455L230.625 91.0446L229.381 98.9473ZM231.254 97.5831L223.355 96.3168L223.353 96.3272L223.351 96.3375L231.254 97.5831ZM229.893 95.7162L228.649 103.619L228.665 103.621L228.68 103.624L229.893 95.7162ZM191.75 89.7157L190.5 97.6176L190.506 97.6185L191.75 89.7157ZM189.88 91.0766L181.978 89.831L181.977 89.8389L189.88 91.0766ZM204.606 146.847L209.611 140.606L209.564 140.568L209.516 140.531L204.606 146.847ZM174.139 123.164L179.049 116.848L179.033 116.836L179.017 116.824L174.139 123.164ZM171.84 123.454L165.539 118.524L165.535 118.529L171.84 123.454ZM171.962 125.603L177.661 119.988L177.661 119.988L171.962 125.603ZM172.124 125.747L177.034 119.431L177.03 119.428L172.124 125.747ZM202.592 149.431L197.682 155.747L197.697 155.759L197.713 155.771L202.592 149.431ZM204.887 149.144L198.585 144.217L198.583 144.219L204.887 149.144ZM108.041 62.261C107.98 59.397 106.83 56.6418 104.798 54.5783L93.3998 65.8074C92.5472 64.942 92.0701 63.7937 92.0447 62.6015L108.041 62.261ZM104.798 54.5783C104.776 54.5569 104.461 54.228 104.023 53.8769L94.0176 66.3628C93.6417 66.0615 93.3686 65.7757 93.3998 65.8074L104.798 54.5783ZM104.538 54.3274C102.316 52.2102 99.3685 51.1265 96.3776 51.2303L96.933 67.2207C95.6966 67.2636 94.4456 66.811 93.5022 65.9122L104.538 54.3274ZM96.3643 51.2308L13.1715 54.2586L13.7535 70.248L96.9462 67.2202L96.3643 51.2308ZM13.1778 54.2584C7.25981 54.4691 2.52264 59.2196 2.3092 65.1218L18.2988 65.7C18.2094 68.1708 16.2285 70.1599 13.7472 70.2483L13.1778 54.2584ZM2.30861 65.1387L2.13422 70.2613L18.125 70.8057L18.2993 65.6831L2.30861 65.1387ZM2.13386 70.2721C2.03538 73.2843 3.15098 76.2752 5.32129 78.5014L16.7777 67.3322C17.7057 68.284 18.1664 69.5397 18.1253 70.7949L2.13386 70.2721ZM5.35066 78.5313C5.35268 78.5334 5.35639 78.5371 5.35963 78.5404C5.3632 78.544 5.36655 78.5474 5.36864 78.5496L16.7663 67.3205C16.7635 67.3176 16.7595 67.3136 16.7561 67.3101C16.7524 67.3064 16.7496 67.3035 16.7484 67.3022L5.35066 78.5313ZM5.36864 78.5496C7.47566 80.6882 10.3818 81.9265 13.4526 81.9064L13.3482 65.9068C14.6615 65.8982 15.8854 66.4264 16.7663 67.3205L5.36864 78.5496ZM13.4235 81.9066L96.9213 81.6652L96.875 65.6653L13.3773 65.9066L13.4235 81.9066ZM96.9352 81.6651C99.904 81.6514 102.797 80.4726 104.933 78.2994L93.5221 67.0835C94.4378 66.1519 95.6531 65.6709 96.8611 65.6653L96.9352 81.6651ZM104.947 78.2853C107.058 76.1269 108.205 73.2297 108.168 70.2372L92.1691 70.4334C92.1541 69.205 92.6275 67.9981 93.5082 67.0977L104.947 78.2853ZM108.168 70.2081L108.042 62.3041L92.0439 62.5584L92.1696 70.4625L108.168 70.2081ZM21.3929 70.9186L21.5738 65.8027L5.58381 65.2372L5.40288 70.3531L21.3929 70.9186ZM13.8698 73.5146L97.056 70.4867L96.474 54.4973L13.2878 57.5252L13.8698 73.5146ZM88.7661 62.6242L88.8967 70.5299L104.894 70.2656L104.764 62.3599L88.7661 62.6242ZM96.8728 62.3978L13.3751 62.6359L13.4207 78.6358L96.9184 78.3977L96.8728 62.3978ZM169.666 42.6839C169.126 40.7753 168.122 39.1304 166.841 37.8299L155.443 49.059C154.92 48.5286 154.496 47.8371 154.27 47.0383L169.666 42.6839ZM166.841 37.8299C164.228 35.1782 160.316 33.8545 156.371 34.7284L159.831 50.3498C158.155 50.7211 156.519 50.151 155.443 49.059L166.841 37.8299ZM156.34 34.7355C137.817 38.917 116.655 44.9513 116.362 45.0374L120.879 60.3867C120.864 60.3912 122.157 60.0216 124.447 59.3855C126.708 58.7572 129.896 57.8817 133.645 56.8799C141.158 54.8724 150.863 52.3744 159.863 50.3427L156.34 34.7355ZM116.446 45.0134C111.62 46.3767 108.334 50.7396 108.242 55.66L124.239 55.9577C124.201 58.0001 122.839 59.8336 120.795 60.4108L116.446 45.0134ZM108.242 55.6811L108.149 61.4818L124.147 61.7373L124.24 55.9366L108.242 55.6811ZM108.149 61.485C108.1 64.6497 109.378 67.5198 111.393 69.5647L122.79 58.3356C123.621 59.179 124.168 60.3825 124.147 61.7341L108.149 61.485ZM111.393 69.5647C113.361 71.5627 116.112 72.8551 119.171 72.9209L119.516 56.9247C120.808 56.9525 121.969 57.5024 122.79 58.3356L111.393 69.5647ZM119.177 72.9211C119.176 72.921 119.177 72.9211 119.184 72.9212C119.19 72.9213 119.198 72.9215 119.209 72.9218C119.23 72.9222 119.259 72.9229 119.296 72.9237C119.37 72.9253 119.476 72.9277 119.61 72.9307C119.879 72.9366 120.265 72.9452 120.752 72.9561C121.726 72.978 123.106 73.009 124.771 73.0467C128.101 73.1221 132.572 73.2242 137.222 73.333C146.558 73.5514 156.512 73.7942 159.491 73.9018L160.069 57.9123C153.902 57.6896 119.827 56.9311 119.51 56.9245L119.177 72.9211ZM159.479 73.9014C164.967 74.1078 169.823 70.3294 170.938 64.9189L155.267 61.69C155.736 59.4142 157.784 57.8263 160.081 57.9127L159.479 73.9014ZM170.933 64.9422C172.047 59.6154 171.664 54.0635 171.136 50.155C170.862 48.1277 170.525 46.3775 170.247 45.0959C170.107 44.4525 169.981 43.9213 169.884 43.5261C169.835 43.3282 169.793 43.1651 169.761 43.0401C169.733 42.9347 169.699 42.8053 169.705 42.8296L154.23 46.8927C154.259 47.0037 154.866 49.2319 155.28 52.2973C155.712 55.493 155.84 58.9498 155.272 61.6667L170.933 64.9422ZM127.419 61.7791L127.509 55.9817L111.51 55.7352L111.421 61.5326L127.419 61.7791ZM119.509 55.8585C121.71 63.5499 121.71 63.55 121.71 63.55C121.71 63.5499 121.71 63.5499 121.71 63.5499C121.71 63.5498 121.711 63.5496 121.712 63.5493C121.714 63.5487 121.717 63.5477 121.722 63.5464C121.731 63.5438 121.745 63.5398 121.764 63.5344C121.802 63.5235 121.86 63.5071 121.937 63.4853C122.09 63.4417 122.319 63.3768 122.618 63.2923C123.216 63.1234 124.094 62.8765 125.207 62.5669C127.432 61.9477 130.593 61.0784 134.325 60.0806C141.803 58.0812 151.513 55.5827 160.565 53.5471L157.055 37.9369C147.704 40.0396 137.763 42.5994 130.192 44.6236C126.399 45.6376 123.186 46.5215 120.918 47.1525C119.784 47.468 118.885 47.7206 118.269 47.8947C117.961 47.9818 117.723 48.0493 117.561 48.0953C117.48 48.1183 117.418 48.1359 117.376 48.148C117.355 48.154 117.339 48.1586 117.327 48.1618C117.322 48.1634 117.318 48.1646 117.315 48.1655C117.313 48.1659 117.312 48.1662 117.311 48.1665C117.31 48.1666 117.31 48.1667 117.31 48.1668C117.309 48.1669 117.309 48.167 119.509 55.8585ZM158.81 45.742C151.097 47.8664 151.097 47.8652 151.096 47.8639C151.096 47.8636 151.096 47.8624 151.096 47.8616C151.095 47.8602 151.095 47.8588 151.095 47.8576C151.094 47.8553 151.094 47.8535 151.093 47.8522C151.093 47.8497 151.092 47.8493 151.093 47.8512C151.094 47.8549 151.097 47.8672 151.103 47.8877C151.113 47.9289 151.133 48.003 151.159 48.1072C151.211 48.316 151.29 48.6433 151.383 49.0672C151.571 49.9204 151.811 51.1359 152.009 52.5433C152.428 55.5272 152.555 58.6731 152.067 61.0105L167.729 64.2801C168.779 59.2488 168.362 53.943 167.853 50.3174C167.586 48.4201 167.266 46.7914 167.009 45.6266C166.88 45.0415 166.766 44.5664 166.681 44.225C166.638 44.0541 166.602 43.9161 166.575 43.8141C166.562 43.763 166.551 43.7209 166.542 43.688C166.537 43.6716 166.534 43.6575 166.53 43.6457C166.529 43.6398 166.527 43.6346 166.526 43.6299C166.525 43.6275 166.525 43.6253 166.524 43.6233C166.524 43.6223 166.524 43.6208 166.523 43.6203C166.523 43.6189 166.523 43.6176 158.81 45.742ZM160.203 54.6511C157.04 54.5306 146.841 54.2816 137.53 54.0645C132.853 53.9555 128.37 53.8538 125.056 53.7794C123.399 53.7422 122.034 53.7118 121.084 53.6907C120.608 53.6801 120.237 53.6719 119.984 53.6663C119.857 53.6635 119.76 53.6614 119.695 53.66C119.662 53.6592 119.638 53.6587 119.621 53.6583C119.613 53.6582 119.607 53.658 119.602 53.6579C119.6 53.6579 119.599 53.6578 119.598 53.6578C119.597 53.6578 119.597 53.6578 119.596 53.6578C119.596 53.6578 119.596 53.6578 119.42 61.6559C119.244 69.6539 119.244 69.6539 119.245 69.6539C119.245 69.6539 119.245 69.6539 119.246 69.654C119.247 69.654 119.248 69.654 119.25 69.6541C119.255 69.6542 119.261 69.6543 119.269 69.6545C119.285 69.6548 119.31 69.6554 119.343 69.6561C119.408 69.6575 119.504 69.6596 119.63 69.6624C119.883 69.668 120.254 69.6762 120.729 69.6868C121.678 69.7078 123.042 69.7382 124.697 69.7754C128.008 69.8497 132.487 69.9513 137.157 70.0602C146.542 70.279 156.582 70.5247 159.593 70.6395L160.203 54.6511ZM173.392 25.7283C171.521 23.8292 168.397 21.9558 164.362 22.5361L166.64 38.3731C165.581 38.5254 164.516 38.3762 163.59 37.9947C162.731 37.6406 162.214 37.1805 161.994 36.9574L173.392 25.7283ZM163.405 22.7342L113.6 36.258L117.792 51.6989L167.598 38.1751L163.405 22.7342ZM114.659 36.0459C108.239 36.8852 103.62 41.3205 101.063 45.9786L115.088 53.6781C115.507 52.9155 115.955 52.4301 116.293 52.1646C116.616 51.911 116.768 51.9064 116.733 51.911L114.659 36.0459ZM108.985 41.8802C110.086 42.0061 110.917 42.3391 111.379 42.5541C111.606 42.6598 111.777 42.7533 111.85 42.794C111.888 42.8152 111.916 42.8314 111.919 42.8328C111.936 42.8424 111.9 42.8221 111.882 42.8115C111.832 42.7836 111.68 42.6969 111.482 42.5978C111.278 42.4955 110.979 42.3562 110.608 42.2205C109.831 41.9363 108.763 41.6793 107.488 41.7263L108.078 57.7155C107.487 57.7372 106.928 57.6907 106.413 57.5984C105.903 57.507 105.467 57.3764 105.115 57.2478C104.768 57.1211 104.494 56.9924 104.313 56.9018C104.138 56.8144 104.008 56.7403 103.982 56.7253C103.975 56.7213 103.951 56.7075 103.979 56.7236C103.993 56.7315 104.032 56.7542 104.082 56.7817C104.178 56.8351 104.372 56.9408 104.622 57.0575C105.131 57.2944 106.012 57.6444 107.166 57.7765L108.985 41.8802ZM107.403 41.7299L72.5171 43.3871L73.2763 59.369L108.163 57.7119L107.403 41.7299ZM80.8917 51.095L80.8249 49.2086L64.8349 49.7746L64.9017 51.661L80.8917 51.095ZM80.8241 49.1848C80.6807 45.4493 79.1328 42.0432 76.6591 39.5323L65.2614 50.7614C65.0012 50.4974 64.8491 50.1437 64.8358 49.7985L80.8241 49.1848ZM76.6591 39.5323C73.8954 36.7271 69.9878 35.0476 65.7499 35.206L66.3476 51.1949C65.9323 51.2104 65.5336 51.0378 65.2614 50.7614L76.6591 39.5323ZM65.7372 35.2065L50.186 35.8127L50.8092 51.8005L66.3604 51.1944L65.7372 35.2065ZM50.2026 35.812C42.1941 36.1075 35.8914 42.8713 36.2076 50.9063L52.1952 50.2771C52.2283 51.1159 51.6012 51.7713 50.7926 51.8012L50.2026 35.812ZM36.206 50.8623L36.2788 53.0141L52.2697 52.473L52.1969 50.3211L36.206 50.8623ZM43.8949 44.7526L6.06644 46.5485L6.82521 62.5305L44.6536 60.7345L43.8949 44.7526ZM5.99913 46.552C1.37306 46.8107 -2.17898 49.4256 -4.36128 52.3567C-6.55617 55.3048 -7.75643 59.0059 -7.81324 62.8009L8.18497 63.0404C8.18952 62.7368 8.24034 62.4718 8.30924 62.2624C8.37967 62.0484 8.45424 61.9361 8.47239 61.9117C8.49295 61.8841 8.41208 62.0048 8.1598 62.1569C7.8911 62.3188 7.45479 62.4956 6.89252 62.5271L5.99913 46.552ZM-7.8139 62.8592L-7.99928 86.988L8.00025 87.1109L8.18563 62.9821L-7.8139 62.8592ZM-7.99915 86.9732C-8.04276 91.5499 -6.38483 96.1231 -3.19205 99.3638L8.20564 88.1347C8.2852 88.2155 8.22131 88.1799 8.1387 87.9635C8.06015 87.7577 7.99685 87.4686 8.00012 87.1257L-7.99915 86.9732ZM-3.19205 99.3638C-1.06495 101.523 1.92424 103.242 5.5616 103.492L6.65676 87.5294C7.5821 87.5929 8.09916 88.0267 8.20564 88.1347L-3.19205 99.3638ZM5.62355 103.496L106.86 109.653L107.831 93.6822L6.59481 87.5254L5.62355 103.496ZM106.922 109.656C108.126 109.72 109.128 109.53 109.842 109.331C110.393 109.176 110.982 108.941 110.83 108.998L105.172 94.032C105.128 94.0487 105.068 94.0717 105.067 94.0723C105.049 94.0789 105.064 94.0732 105.09 94.0636C105.141 94.0449 105.306 93.9851 105.534 93.9215C106.034 93.7815 106.813 93.6281 107.769 93.6787L106.922 109.656ZM101.124 105.603C101.911 106.927 102.903 108.318 104.161 109.595L115.559 98.366C115.414 98.2192 115.177 97.9303 114.878 97.4275L101.124 105.603ZM104.161 109.595C106.656 112.128 110.008 114.16 114.053 114.734L116.3 98.8925C116.298 98.8923 116.287 98.8908 116.265 98.8831C116.241 98.8752 116.199 98.8587 116.138 98.8257C116.014 98.7587 115.811 98.6223 115.559 98.366L104.161 109.595ZM112.979 114.505L162.54 128.664L166.935 113.28L117.374 99.121L112.979 114.505ZM163.514 128.878C166.95 129.41 169.839 128.13 171.799 126.497C173.577 125.017 174.744 123.161 175.521 121.64C177.092 118.566 178.181 114.621 178.989 110.607C180.644 102.394 181.574 91.521 181.853 80.5802C182.132 69.5953 181.765 58.1496 180.693 48.7138C180.159 44.0124 179.429 39.6138 178.447 35.9416C177.578 32.688 176.157 28.5348 173.392 25.7283L161.994 36.9574C161.583 36.5394 162.177 37.0317 162.99 40.0722C163.69 42.6939 164.309 46.238 164.795 50.5197C165.764 59.0502 166.124 69.7327 165.858 80.1728C165.591 90.657 164.702 100.506 163.304 107.447C162.587 111.01 161.841 113.249 161.273 114.36C160.981 114.931 161.003 114.667 161.561 114.202C162.301 113.586 163.895 112.746 165.961 113.066L163.514 128.878ZM54.2401 53.5295C53.3628 54.4864 52.1557 55.0212 50.9293 55.0688L50.3084 39.0809C47.3406 39.1961 44.5018 40.4752 42.4466 42.7168L54.2401 53.5295ZM50.9297 55.0688L66.4759 54.4643L65.8542 38.4764L50.308 39.0809L50.9297 55.0688ZM66.4659 54.4647C65.197 54.5124 63.8868 54.0241 62.9327 53.0557L74.3304 41.8266C72.0684 39.5306 68.9967 38.3581 65.8643 38.476L66.4659 54.4647ZM62.9327 53.0557C62.0623 52.1723 61.6052 51.0265 61.5649 49.9035L77.5546 49.33C77.4554 46.5647 76.3484 43.8749 74.3304 41.8266L62.9327 53.0557ZM61.5654 49.916L61.6369 51.8271L77.6257 51.2287L77.5542 49.3176L61.5654 49.916ZM69.3255 43.5338L47.2358 44.3786L47.8473 60.3669L69.937 59.5221L69.3255 43.5338ZM55.5367 52.0946L55.4701 50.1818L39.4798 50.7382L39.5464 52.651L55.5367 52.0946ZM55.4674 50.1123C55.5244 51.4236 55.0404 52.667 54.2085 53.5637L42.4782 42.6826C40.4487 44.8705 39.3507 47.7782 39.4825 50.8078L55.4674 50.1123ZM6.84354 84.2644C8.14724 84.3482 9.0934 84.8018 9.60394 85.1094C10.1102 85.4143 10.4182 85.7126 10.5393 85.8356L-0.858364 97.0647C-0.187032 97.7461 2.12804 99.9945 5.81801 100.232L6.84354 84.2644ZM10.5393 85.8356C11.0105 86.3138 11.1681 86.7066 11.2097 86.8226C11.2602 86.9631 11.2716 87.0615 11.2707 87.1528L-4.72848 86.9893C-4.76296 90.3611 -3.63327 94.2481 -0.858364 97.0647L10.5393 85.8356ZM11.2709 87.1331L11.4577 63.0224L-4.54178 62.8984L-4.72866 87.0091L11.2709 87.1331ZM11.4573 63.0672C11.4572 63.074 11.4558 63.1249 11.4276 63.219C11.4017 63.3058 11.3388 63.4764 11.1865 63.708C11.0461 63.9214 10.7413 64.3196 10.1727 64.7281C9.62474 65.1218 8.55553 65.7134 7.01962 65.795L6.17062 49.8176C1.82241 50.0486 -0.919287 52.9976 -2.18013 54.914C-3.66194 57.1663 -4.5024 59.9391 -4.54131 62.8536L11.4573 63.0672ZM6.97465 65.7973L70.8741 62.7624L70.1151 46.7804L6.21558 49.8153L6.97465 65.7973ZM70.8124 62.7651L73.3372 62.6647L72.7016 46.6773L70.1768 46.7777L70.8124 62.7651ZM80.9485 53.6081L80.9454 53.585L65.0872 55.7109L65.0903 55.734L80.9485 53.6081ZM73.3947 62.639L107.122 61.0417L106.365 45.0597L72.6379 46.6569L73.3947 62.639ZM101.044 58.6653C100.404 58.0157 100.02 57.4012 99.8446 57.1016C99.6426 56.7575 99.5051 56.4637 99.4237 56.279C99.2636 55.9156 99.1658 55.6187 99.1224 55.4825C99.0305 55.1938 98.9765 54.9647 98.9595 54.8922C98.9186 54.7176 98.8917 54.5723 98.8954 54.5913L114.61 51.5827C114.61 51.5806 114.602 51.5388 114.591 51.4875C114.582 51.4399 114.563 51.3514 114.538 51.2418C114.519 51.1617 114.463 50.9253 114.369 50.6308C114.325 50.4916 114.226 50.1921 114.065 49.8268C113.983 49.6411 113.845 49.3464 113.643 49.0016C113.466 48.7012 113.082 48.0861 112.442 47.4362L101.044 58.6653ZM99.0575 50.8997C98.5261 52.7692 98.1447 54.8671 98.1155 57.1408L114.114 57.3468C114.122 56.7391 114.225 56.0574 114.448 55.2744L99.0575 50.8997ZM98.1151 57.1771L97.8133 93.3527L113.813 93.4862L114.115 57.3105L98.1151 57.1771ZM97.8132 93.3618C97.7952 95.8588 98.2411 98.0883 98.7514 99.9246L114.167 95.6404C113.903 94.6889 113.809 94.0101 113.813 93.4771L97.8132 93.3618ZM98.5943 96.319C98.5789 96.402 98.566 96.4764 98.5558 96.5376C98.5456 96.5991 98.5369 96.6541 98.5301 96.6983C98.5233 96.7421 98.5173 96.782 98.513 96.8104C98.5077 96.8462 98.5062 96.8561 98.5032 96.8764C98.5009 96.8916 98.5003 96.8952 98.5007 96.8928C98.5011 96.8904 98.5035 96.8747 98.5078 96.8501C98.512 96.8259 98.5194 96.7838 98.5302 96.7289C98.5408 96.6752 98.5575 96.5942 98.5811 96.4939L114.154 100.168C114.215 99.9093 114.254 99.691 114.275 99.5677C114.298 99.4366 114.315 99.3207 114.325 99.2606C114.338 99.1694 114.337 99.1754 114.342 99.1461C114.344 99.1314 114.338 99.1748 114.324 99.2461L98.5943 96.319ZM106.853 90.3457L6.81633 84.2627L5.84521 100.233L105.882 106.316L106.853 90.3457ZM167.012 109.898L118.279 95.9733L113.883 111.358L162.617 125.282L167.012 109.898ZM118.135 95.9336C117.775 95.8381 117.255 95.7155 116.627 95.637L114.643 111.513C114.321 111.473 114.094 111.415 114.027 111.397L118.135 95.9336ZM116.795 95.6597C117.66 95.7864 117.988 96.1674 117.893 96.0701L106.495 107.299C108.498 109.333 111.207 111.012 114.475 111.491L116.795 95.6597ZM117.893 96.0701C117.839 96.016 117.59 95.7144 117.363 95.0322L102.18 100.082C103.009 102.572 104.38 105.153 106.495 107.299L117.893 96.0701ZM117.358 95.0196C117.161 94.4301 117.083 93.911 117.085 93.4873L101.085 93.3916C101.071 95.8165 101.513 98.0869 102.185 100.095L117.358 95.0196ZM117.085 93.5062L117.387 57.3503L101.387 57.2168L101.086 93.3727L117.085 93.5062ZM117.386 57.399C117.391 57.0389 117.467 56.5609 117.668 55.9568L102.489 50.8976C101.882 52.7181 101.421 54.8413 101.388 57.1681L117.386 57.399ZM117.664 55.9685C117.773 55.6428 117.903 55.3635 118.033 55.141C118.164 54.9159 118.273 54.7846 118.326 54.7289C118.381 54.6709 118.338 54.733 118.161 54.8333C117.975 54.9381 117.631 55.0899 117.143 55.153L115.092 39.285C108.056 40.1946 104.032 46.2925 102.493 50.8858L117.664 55.9685ZM117.068 55.1623C117.697 55.0871 118.227 54.9639 118.588 54.869L114.513 39.3967C114.563 39.3835 114.64 39.3642 114.741 39.3437C114.841 39.3235 114.985 39.2974 115.167 39.2757L117.068 55.1623ZM118.646 54.8533L167.631 41.5532L163.438 26.1123L114.454 39.4124L118.646 54.8533ZM159.369 38.9308C158.923 38.3908 159.025 38.262 159.386 39.3214C159.686 40.2007 160.029 41.4902 160.376 43.2211C161.068 46.6693 161.671 51.3197 162.089 56.8196C162.924 67.8041 162.975 81.5806 161.748 94.8039L177.68 96.2819C178.995 82.1065 178.941 67.4281 178.043 55.6073C177.595 49.7045 176.924 44.3647 176.063 40.0733C175.634 37.9343 175.13 35.9166 174.53 34.1562C173.991 32.5759 173.138 30.4748 171.7 28.7347L159.369 38.9308ZM161.748 94.8077C160.228 111.281 157.774 113.588 158.557 112.606L171.073 122.574C173.451 119.587 176.132 113.055 177.68 96.2781L161.748 94.8077ZM166.511 31.7554C166.523 31.7697 166.589 31.8476 166.663 31.9321C166.74 32.02 166.869 32.1637 167.033 32.3302L178.431 21.1011C178.554 21.226 178.642 21.325 178.678 21.3665C178.712 21.4046 178.737 21.4344 178.708 21.4005L166.511 31.7554ZM167.033 32.3302C170.462 35.8109 175.985 36.1828 179.859 33.1317L169.958 20.5624C172.508 18.5543 176.156 18.7919 178.431 21.1011L167.033 32.3302ZM179.86 33.1309L210.222 9.20808L200.32 -3.35963L169.957 20.5632L179.86 33.1309ZM210.22 9.21014C214.387 5.92927 215.134 -0.123871 211.835 -4.31817L199.26 5.57407C197.076 2.79831 197.575 -1.19905 200.323 -3.36169L210.22 9.21014ZM211.767 -4.40304C208.455 -8.49841 202.485 -9.22242 198.303 -5.93031L208.2 6.64152C205.438 8.8154 201.468 8.30573 199.327 5.65894L211.767 -4.40304ZM198.3 -5.92825L167.938 17.9946L177.84 30.5623L208.202 6.63946L198.3 -5.92825ZM167.937 17.9953C163.754 21.2918 163.05 27.3214 166.296 31.4917L178.922 21.6642C181.059 24.4095 180.596 28.3899 177.841 30.5615L167.937 17.9953ZM180.896 60.4152C181.382 61.9748 182.223 63.2815 183.225 64.2989L194.623 53.0698C195.282 53.7387 195.847 54.6116 196.172 55.6559L180.896 60.4152ZM183.225 64.2989C185.687 66.7969 189.449 67.8666 193.043 66.7088L188.136 51.4798C190.516 50.7129 193.006 51.4279 194.623 53.0698L183.225 64.2989ZM193.028 66.7136L229.828 54.9371L224.951 39.6984L188.151 51.4749L193.028 66.7136ZM229.815 54.9411C234.9 53.323 237.689 47.891 236.073 42.8278L220.831 47.6936C219.764 44.3519 221.604 40.7634 224.964 39.6943L229.815 54.9411ZM236.089 42.8794C234.459 37.6518 228.922 34.978 223.936 36.5898L228.857 51.8141C225.58 52.8735 221.898 51.1186 220.814 47.6421L236.089 42.8794ZM223.958 36.5827L187.161 48.3593L192.038 63.5979L228.835 51.8213L223.958 36.5827ZM187.156 48.3608C182.121 49.9757 179.297 55.365 180.907 60.4509L196.161 55.6202C197.225 58.9814 195.356 62.5338 192.043 63.5963L187.156 48.3608ZM184.632 98.0954C186.053 99.5378 187.93 100.532 190.037 100.852L192.446 85.0347C193.828 85.2452 195.082 85.9051 196.029 86.8663L184.632 98.0954ZM189.997 100.846L228.137 106.85L230.625 91.0446L192.486 85.0409L189.997 100.846ZM228.132 106.849C233.4 107.682 238.329 104.079 239.156 98.8288L223.351 96.3375C223.897 92.8761 227.147 90.4948 230.63 91.0455L228.132 106.849ZM239.153 98.8495C239.994 93.6026 236.418 88.6232 231.105 87.8086L228.68 103.624C225.165 103.085 222.799 99.7851 223.355 96.3168L239.153 98.8495ZM231.136 87.8134L192.993 81.8129L190.506 97.6185L228.649 103.619L231.136 87.8134ZM192.999 81.8139C187.737 80.982 182.806 84.5751 181.978 89.831L197.783 92.3223C197.236 95.7897 193.978 98.1673 190.5 97.6176L192.999 81.8139ZM181.977 89.8389C181.489 92.9525 182.554 95.9864 184.632 98.0954L196.029 86.8663C197.401 88.2585 198.105 90.268 197.784 92.3144L181.977 89.8389ZM209.516 140.531L179.049 116.848L169.229 129.48L199.696 153.164L209.516 140.531ZM179.017 116.824C174.822 113.596 168.807 114.347 165.539 118.524L178.141 128.384C175.989 131.134 172.021 131.629 169.26 129.505L179.017 116.824ZM165.535 118.529C162.517 122.393 162.918 127.821 166.264 131.217L177.661 119.988C179.876 122.236 180.143 125.82 178.145 128.379L165.535 118.529ZM166.264 131.217C166.539 131.497 166.86 131.788 167.219 132.067L177.03 119.428C177.163 119.531 177.277 119.628 177.372 119.713C177.468 119.798 177.564 119.889 177.661 119.988L166.264 131.217ZM167.215 132.063L197.682 155.747L207.501 143.114L177.034 119.431L167.215 132.063ZM197.713 155.771C201.896 158.99 207.916 158.261 211.191 154.07L198.583 144.219C200.748 141.448 204.722 140.976 207.47 143.09L197.713 155.771ZM211.189 154.072C214.566 149.752 213.556 143.77 209.611 140.606L199.602 153.089C197.028 151.025 196.321 147.112 198.585 144.217L211.189 154.072Z" fill="#0A0C1B" mask="url(#path-1-inside-1)"/>
</svg>
